<mxfile host="app.diagrams.net" agent="Mozilla/5.0 (Windows NT 10.0; Win64; x64; rv:135.0) Gecko/20100101 Firefox/135.0" version="26.0.14">
  <diagram name="Page-1" id="Lr2VWu3coFEoMY9z0Jrr">
    <mxGraphModel dx="1050" dy="1755" grid="1" gridSize="10" guides="1" tooltips="1" connect="1" arrows="1" fold="1" page="1" pageScale="1" pageWidth="850" pageHeight="1100" math="0" shadow="0">
      <root>
        <mxCell id="0" />
        <mxCell id="1" parent="0" />
        <mxCell id="CYl2oaZb0qsXkD0Vrxus-27" value="" style="rounded=0;whiteSpace=wrap;html=1;fillColor=#f5f5f5;fontColor=#333333;strokeColor=#666666;" vertex="1" parent="1">
          <mxGeometry x="650" y="100" width="170" height="270" as="geometry" />
        </mxCell>
        <mxCell id="CYl2oaZb0qsXkD0Vrxus-1" value="" style="rounded=0;whiteSpace=wrap;html=1;fillColor=#f5f5f5;strokeColor=#666666;fontColor=#333333;" vertex="1" parent="1">
          <mxGeometry x="110" y="100" width="450" height="260" as="geometry" />
        </mxCell>
        <mxCell id="CYl2oaZb0qsXkD0Vrxus-11" style="edgeStyle=orthogonalEdgeStyle;rounded=0;orthogonalLoop=1;jettySize=auto;html=1;entryX=0;entryY=0.5;entryDx=0;entryDy=0;" edge="1" parent="1" source="CYl2oaZb0qsXkD0Vrxus-25" target="CYl2oaZb0qsXkD0Vrxus-3">
          <mxGeometry relative="1" as="geometry" />
        </mxCell>
        <mxCell id="CYl2oaZb0qsXkD0Vrxus-2" value="MinIO" style="shape=cylinder3;whiteSpace=wrap;html=1;boundedLbl=1;backgroundOutline=1;size=15;fillColor=#f8cecc;strokeColor=#000000;" vertex="1" parent="1">
          <mxGeometry x="180" y="210" width="60" height="80" as="geometry" />
        </mxCell>
        <mxCell id="CYl2oaZb0qsXkD0Vrxus-3" value="Argo Workflow controller" style="rounded=0;whiteSpace=wrap;html=1;" vertex="1" parent="1">
          <mxGeometry x="380" y="220" width="120" height="60" as="geometry" />
        </mxCell>
        <mxCell id="CYl2oaZb0qsXkD0Vrxus-10" style="edgeStyle=orthogonalEdgeStyle;rounded=0;orthogonalLoop=1;jettySize=auto;html=1;" edge="1" parent="1" source="CYl2oaZb0qsXkD0Vrxus-22" target="CYl2oaZb0qsXkD0Vrxus-3">
          <mxGeometry relative="1" as="geometry" />
        </mxCell>
        <mxCell id="CYl2oaZb0qsXkD0Vrxus-4" value="MinIO" style="shape=cylinder3;whiteSpace=wrap;html=1;boundedLbl=1;backgroundOutline=1;size=15;fillColor=#f8cecc;strokeColor=#000000;" vertex="1" parent="1">
          <mxGeometry x="690" y="210" width="60" height="80" as="geometry" />
        </mxCell>
        <mxCell id="CYl2oaZb0qsXkD0Vrxus-5" value="&lt;b&gt;Remote &#39;Large&#39; Datastore&lt;/b&gt;" style="text;html=1;align=center;verticalAlign=middle;whiteSpace=wrap;rounded=0;" vertex="1" parent="1">
          <mxGeometry x="690" y="310" width="60" height="30" as="geometry" />
        </mxCell>
        <mxCell id="CYl2oaZb0qsXkD0Vrxus-6" value="&lt;div&gt;&lt;b&gt;Local &#39;Smaller&#39;&lt;/b&gt;&lt;/div&gt;&lt;div&gt;&lt;b&gt;Datastore&lt;/b&gt;&lt;/div&gt;" style="text;html=1;align=center;verticalAlign=middle;whiteSpace=wrap;rounded=0;" vertex="1" parent="1">
          <mxGeometry x="180" y="300" width="60" height="30" as="geometry" />
        </mxCell>
        <mxCell id="CYl2oaZb0qsXkD0Vrxus-7" value="&lt;b&gt;UvA network&lt;/b&gt;" style="text;html=1;align=center;verticalAlign=middle;whiteSpace=wrap;rounded=0;" vertex="1" parent="1">
          <mxGeometry x="110" y="100" width="100" height="30" as="geometry" />
        </mxCell>
        <mxCell id="CYl2oaZb0qsXkD0Vrxus-16" style="edgeStyle=orthogonalEdgeStyle;rounded=0;orthogonalLoop=1;jettySize=auto;html=1;" edge="1" parent="1" source="CYl2oaZb0qsXkD0Vrxus-20" target="CYl2oaZb0qsXkD0Vrxus-3">
          <mxGeometry relative="1" as="geometry" />
        </mxCell>
        <mxCell id="CYl2oaZb0qsXkD0Vrxus-14" value="" style="ellipse;whiteSpace=wrap;html=1;fillColor=#fff2cc;strokeColor=#000000;" vertex="1" parent="1">
          <mxGeometry x="380" y="-10" width="120" height="80" as="geometry" />
        </mxCell>
        <mxCell id="CYl2oaZb0qsXkD0Vrxus-15" value="&lt;span&gt;External Client&lt;/span&gt;" style="text;html=1;align=center;verticalAlign=middle;whiteSpace=wrap;rounded=0;fontStyle=1" vertex="1" parent="1">
          <mxGeometry x="410" y="15" width="60" height="30" as="geometry" />
        </mxCell>
        <mxCell id="CYl2oaZb0qsXkD0Vrxus-18" value="Data is first sourced from the local data store before being fetch from the remote datastore" style="shape=callout;whiteSpace=wrap;html=1;perimeter=calloutPerimeter;position2=0.52;" vertex="1" parent="1">
          <mxGeometry x="220" y="110" width="135" height="100" as="geometry" />
        </mxCell>
        <mxCell id="CYl2oaZb0qsXkD0Vrxus-21" value="" style="edgeStyle=orthogonalEdgeStyle;rounded=0;orthogonalLoop=1;jettySize=auto;html=1;endArrow=none;startFill=0;" edge="1" parent="1" source="CYl2oaZb0qsXkD0Vrxus-14" target="CYl2oaZb0qsXkD0Vrxus-20">
          <mxGeometry relative="1" as="geometry">
            <mxPoint x="440" y="70" as="sourcePoint" />
            <mxPoint x="440" y="220" as="targetPoint" />
          </mxGeometry>
        </mxCell>
        <mxCell id="CYl2oaZb0qsXkD0Vrxus-20" value="Dataprocessing jobs (JSON)" style="text;html=1;align=center;verticalAlign=middle;whiteSpace=wrap;rounded=0;" vertex="1" parent="1">
          <mxGeometry x="390" y="140" width="100" height="30" as="geometry" />
        </mxCell>
        <mxCell id="CYl2oaZb0qsXkD0Vrxus-23" value="" style="edgeStyle=orthogonalEdgeStyle;rounded=0;orthogonalLoop=1;jettySize=auto;html=1;endArrow=none;startFill=0;" edge="1" parent="1" source="CYl2oaZb0qsXkD0Vrxus-4" target="CYl2oaZb0qsXkD0Vrxus-22">
          <mxGeometry relative="1" as="geometry">
            <mxPoint x="640" y="250" as="sourcePoint" />
            <mxPoint x="500" y="250" as="targetPoint" />
          </mxGeometry>
        </mxCell>
        <mxCell id="CYl2oaZb0qsXkD0Vrxus-22" value="&#39;Slow&#39; remote data fetch" style="text;html=1;align=center;verticalAlign=middle;whiteSpace=wrap;rounded=0;" vertex="1" parent="1">
          <mxGeometry x="580" y="235" width="60" height="30" as="geometry" />
        </mxCell>
        <mxCell id="CYl2oaZb0qsXkD0Vrxus-26" value="" style="edgeStyle=orthogonalEdgeStyle;rounded=0;orthogonalLoop=1;jettySize=auto;html=1;entryX=0;entryY=0.5;entryDx=0;entryDy=0;endArrow=none;startFill=0;" edge="1" parent="1" source="CYl2oaZb0qsXkD0Vrxus-2" target="CYl2oaZb0qsXkD0Vrxus-25">
          <mxGeometry relative="1" as="geometry">
            <mxPoint x="240" y="250" as="sourcePoint" />
            <mxPoint x="380" y="250" as="targetPoint" />
          </mxGeometry>
        </mxCell>
        <mxCell id="CYl2oaZb0qsXkD0Vrxus-25" value="&#39;Faster&#39; local data fetch" style="text;html=1;align=center;verticalAlign=middle;whiteSpace=wrap;rounded=0;" vertex="1" parent="1">
          <mxGeometry x="277.5" y="235" width="60" height="30" as="geometry" />
        </mxCell>
        <mxCell id="CYl2oaZb0qsXkD0Vrxus-28" value="Remote nework" style="text;html=1;align=center;verticalAlign=middle;whiteSpace=wrap;rounded=0;fontStyle=1" vertex="1" parent="1">
          <mxGeometry x="650" y="100" width="100" height="30" as="geometry" />
        </mxCell>
      </root>
    </mxGraphModel>
  </diagram>
</mxfile>
